<?xml version="1.0" encoding="UTF-8" standalone="no"?>
<!-- Created with Inkscape (http://www.inkscape.org/) -->

<svg
   xmlns:dc="http://purl.org/dc/elements/1.1/"
   xmlns:cc="http://creativecommons.org/ns#"
   xmlns:rdf="http://www.w3.org/1999/02/22-rdf-syntax-ns#"
   xmlns:svg="http://www.w3.org/2000/svg"
   xmlns="http://www.w3.org/2000/svg"
   xmlns:sodipodi="http://sodipodi.sourceforge.net/DTD/sodipodi-0.dtd"
   xmlns:inkscape="http://www.inkscape.org/namespaces/inkscape"
   width="72.708206mm"
   height="49.785625mm"
   viewBox="0 0 72.708206 49.785625"
   version="1.1"
   id="svg1052"
   inkscape:version="0.92.4 (5da689c313, 2019-01-14)"
   sodipodi:docname="mbi-logo.svg">
  <defs
     id="defs1046">
    <radialGradient
       fx="0"
       fy="0"
       cx="0"
       cy="0"
       r="1"
       gradientUnits="userSpaceOnUse"
       gradientTransform="matrix(51.221847,0,0,-51.221847,120.05908,137.63867)"
       spreadMethod="pad"
       id="radialGradient86">
      <stop
         style="stop-opacity:1;stop-color:#ffffff"
         offset="0"
         id="stop78" />
      <stop
         style="stop-opacity:1;stop-color:#ffffff"
         offset="0.07930254"
         id="stop80" />
      <stop
         style="stop-opacity:1;stop-color:#686aa6"
         offset="0.741758"
         id="stop82" />
      <stop
         style="stop-opacity:1;stop-color:#202458"
         offset="1"
         id="stop84" />
    </radialGradient>
    <clipPath
       clipPathUnits="userSpaceOnUse"
       id="clipPath108">
      <path
         d="m 111.183,144.946 h 16.438 v -16.438 h -16.438 z"
         id="path106"
         inkscape:connector-curvature="0" />
    </clipPath>
    <clipPath
       clipPathUnits="userSpaceOnUse"
       id="clipPath122">
      <path
         d="m 112.826,143.303 h 13.152 v -13.152 h -13.152 z"
         id="path120"
         inkscape:connector-curvature="0" />
    </clipPath>
    <clipPath
       clipPathUnits="userSpaceOnUse"
       id="clipPath136">
      <path
         d="m 114.142,141.987 h 10.52 v -10.52 h -10.52 z"
         id="path134"
         inkscape:connector-curvature="0" />
    </clipPath>
    <clipPath
       clipPathUnits="userSpaceOnUse"
       id="clipPath150">
      <path
         d="m 115.193,140.936 h 8.417 v -8.417 h -8.417 z"
         id="path148"
         inkscape:connector-curvature="0" />
    </clipPath>
    <clipPath
       clipPathUnits="userSpaceOnUse"
       id="clipPath164">
      <path
         d="m 116.035,140.094 h 6.734 v -6.734 h -6.734 z"
         id="path162"
         inkscape:connector-curvature="0" />
    </clipPath>
    <clipPath
       clipPathUnits="userSpaceOnUse"
       id="clipPath178">
      <path
         d="m 116.709,139.42 h 5.387 v -5.387 h -5.387 z"
         id="path176"
         inkscape:connector-curvature="0" />
    </clipPath>
    <clipPath
       clipPathUnits="userSpaceOnUse"
       id="clipPath192">
      <path
         d="m 117.248,138.881 h 4.309 v -4.309 h -4.309 z"
         id="path190"
         inkscape:connector-curvature="0" />
    </clipPath>
    <clipPath
       clipPathUnits="userSpaceOnUse"
       id="clipPath206">
      <path
         d="m 117.679,138.45 h 3.447 v -3.447 h -3.447 z"
         id="path204"
         inkscape:connector-curvature="0" />
    </clipPath>
  </defs>
  <sodipodi:namedview
     id="base"
     pagecolor="#ffffff"
     bordercolor="#666666"
     borderopacity="1.0"
     inkscape:pageopacity="0.0"
     inkscape:pageshadow="2"
     inkscape:zoom="1.979899"
     inkscape:cx="109.98255"
     inkscape:cy="93.182354"
     inkscape:document-units="mm"
     inkscape:current-layer="layer1"
     showgrid="false"
     fit-margin-top="0"
     fit-margin-left="0"
     fit-margin-right="0"
     fit-margin-bottom="0"
     inkscape:window-width="1920"
     inkscape:window-height="1135"
     inkscape:window-x="1920"
     inkscape:window-y="1200"
     inkscape:window-maximized="1"
     showguides="true"
     inkscape:guide-bbox="true">
    <sodipodi:guide
       position="36.056355,47.722532"
       orientation="1,0"
       inkscape:locked="false"
       id="guide1180" />
  </sodipodi:namedview>
  <metadata
     id="metadata1049">
    <rdf:RDF>
      <cc:Work
         rdf:about="">
        <dc:format>image/svg+xml</dc:format>
        <dc:type
           rdf:resource="http://purl.org/dc/dcmitype/StillImage" />
        <dc:title></dc:title>
      </cc:Work>
    </rdf:RDF>
  </metadata>
  <g
     inkscape:label="Ebene 1"
     inkscape:groupmode="layer"
     id="layer1"
     transform="translate(-79.224372,-112.60891)">
    <g
       transform="matrix(0.35277777,0,0,-0.35277777,73.103678,192.74878)"
       id="g955">
      <text
         id="text52"
         style="font-variant:normal;font-weight:normal;font-stretch:normal;font-size:28.74740028px;font-family:'Times New Roman';-inkscape-font-specification:TimesNewRomanPSMT;writing-mode:lr-tb;fill:#4b4b4d;fill-opacity:1;fill-rule:nonzero;stroke:none"
         transform="matrix(1,0,0,-0.97400113,14.9889,57.6037)">
        <tspan
           id="tspan50"
           y="0"
           x="0"
           style="fill:#ffffff" />
      </text>
      <text
         id="text56"
         style="font-variant:normal;font-weight:normal;font-stretch:normal;font-size:28.74740028px;font-family:'Times New Roman';-inkscape-font-specification:TimesNewRomanPSMT;writing-mode:lr-tb;fill:#4b4b4d;fill-opacity:1;fill-rule:nonzero;stroke:none"
         transform="matrix(1,0,0,-0.97400113,40.5212,57.6037)">
        <tspan
           id="tspan54"
           y="0"
           x="0"
           style="fill:#ffffff" />
      </text>
      <path
         inkscape:connector-curvature="0"
         id="path62"
         style="fill:#1f2359;fill-opacity:1;fill-rule:nonzero;stroke:none"
         d="M 120.034,86.079 H 17.35 l 102.207,141.04179 z"
         sodipodi:nodetypes="cccc" />
      <path
         inkscape:connector-curvature="0"
         id="path64"
         style="fill:#1f2359;fill-opacity:1;fill-rule:nonzero;stroke:none"
         d="M 118.754,86.078 H 223.452 L 119.557,227.12079 Z"
         sodipodi:nodetypes="cccc" />
      <g
         id="g66">
        <g
           id="g68">
          <g
             id="g74">
            <g
               id="g76">
              <path
                 inkscape:connector-curvature="0"
                 id="path88"
                 style="fill:url(#radialGradient86);stroke:none"
                 d="m 171.903,137.637 c 0,-27.942 -23.211,-50.59 -51.843,-50.59 -28.633,0 -51.846,22.648 -51.846,50.59 0,27.943 23.213,50.593 51.846,50.593 28.632,0 51.843,-22.65 51.843,-50.593" />
            </g>
          </g>
        </g>
      </g>
      <path
         style="color:#000000;font-style:normal;font-variant:normal;font-weight:normal;font-stretch:normal;font-size:medium;line-height:normal;font-family:sans-serif;font-variant-ligatures:normal;font-variant-position:normal;font-variant-caps:normal;font-variant-numeric:normal;font-variant-alternates:normal;font-feature-settings:normal;text-indent:0;text-align:start;text-decoration:none;text-decoration-line:none;text-decoration-style:solid;text-decoration-color:#000000;letter-spacing:normal;word-spacing:normal;text-transform:none;writing-mode:lr-tb;direction:ltr;text-orientation:mixed;dominant-baseline:auto;baseline-shift:baseline;text-anchor:start;white-space:normal;shape-padding:0;clip-rule:nonzero;display:inline;overflow:visible;visibility:visible;opacity:1;isolation:auto;mix-blend-mode:normal;color-interpolation:sRGB;color-interpolation-filters:linearRGB;solid-color:#000000;solid-opacity:1;vector-effect:none;fill:#ffffff;fill-opacity:1;fill-rule:nonzero;stroke:none;stroke-width:2;stroke-linecap:butt;stroke-linejoin:round;stroke-miterlimit:10;stroke-dasharray:none;stroke-dashoffset:0;stroke-opacity:1;color-rendering:auto;image-rendering:auto;shape-rendering:auto;text-rendering:auto;enable-background:accumulate"
         d="M 18.867138,86.086434 17.35,86.079 l 1.049359,1.457465 36.95611,20.262365 1.859375,5.34375 c 0.295732,0.84845 1.473356,0.90683 1.851562,0.0918 l 2.75586,-5.93165 3.242187,12.32422 c 0.272222,1.02891 1.749788,0.97706 1.949219,-0.0684 l 2.175781,-11.52343 6.613281,17.40234 c 0.318235,0.83789 1.493089,0.86638 1.851563,0.0449 l 2.435547,-5.58789 15.667968,7.96875 0.90625,-1.7832 -16.613281,-8.44922 c -0.513001,-0.2602 -1.139227,-0.0351 -1.36914,0.49219 l -1.88086,4.3125 -7,-18.42383 c -0.35826,-0.94447 -1.731334,-0.82283 -1.917969,0.16992 l -2.011718,10.65039 -2.820313,-10.71875 c -0.23876,-0.90415 -1.477226,-1.01521 -1.873047,-0.16797 l -2.884765,6.21094 -1.175781,-3.38086 c -0.08207,-0.23564 -0.249262,-0.43209 -0.46875,-0.55078 z"
         id="path90"
         inkscape:connector-curvature="0"
         sodipodi:nodetypes="ccccccccccccccccccccccccccc" />
      <path
         style="color:#000000;font-style:normal;font-variant:normal;font-weight:normal;font-stretch:normal;font-size:medium;line-height:normal;font-family:sans-serif;font-variant-ligatures:normal;font-variant-position:normal;font-variant-caps:normal;font-variant-numeric:normal;font-variant-alternates:normal;font-feature-settings:normal;text-indent:0;text-align:start;text-decoration:none;text-decoration-line:none;text-decoration-style:solid;text-decoration-color:#000000;letter-spacing:normal;word-spacing:normal;text-transform:none;writing-mode:lr-tb;direction:ltr;text-orientation:mixed;dominant-baseline:auto;baseline-shift:baseline;text-anchor:start;white-space:normal;shape-padding:0;clip-rule:nonzero;display:inline;overflow:visible;visibility:visible;opacity:1;isolation:auto;mix-blend-mode:normal;color-interpolation:sRGB;color-interpolation-filters:linearRGB;solid-color:#000000;solid-opacity:1;vector-effect:none;fill:#ffffff;fill-opacity:1;fill-rule:nonzero;stroke:none;stroke-width:3;stroke-linecap:square;stroke-linejoin:miter;stroke-miterlimit:10;stroke-dasharray:none;stroke-dashoffset:0;stroke-opacity:1;color-rendering:auto;image-rendering:auto;shape-rendering:auto;text-rendering:auto;enable-background:accumulate"
         d="m 118.05664,149.65234 v 1.5 31.24219 l 10.57422,2.08399 -32.228516,4.39257 21.654296,8.23829 v 27.96827 l 1.50036,2.09049 v 0 l 1.49964,-2.07526 v -30.05186 l -12.58398,-4.78711 38.41015,-5.23633 -25.82617,-5.08789 v -28.77735 -1.5 z"
         inkscape:connector-curvature="0"
         id="path92"
         sodipodi:nodetypes="ccccccccccccccccc" />
      <path
         style="color:#000000;font-style:normal;font-variant:normal;font-weight:normal;font-stretch:normal;font-size:medium;line-height:normal;font-family:sans-serif;font-variant-ligatures:normal;font-variant-position:normal;font-variant-caps:normal;font-variant-numeric:normal;font-variant-alternates:normal;font-feature-settings:normal;text-indent:0;text-align:start;text-decoration:none;text-decoration-line:none;text-decoration-style:solid;text-decoration-color:#000000;letter-spacing:normal;word-spacing:normal;text-transform:none;writing-mode:lr-tb;direction:ltr;text-orientation:mixed;dominant-baseline:auto;baseline-shift:baseline;text-anchor:start;white-space:normal;shape-padding:0;clip-rule:nonzero;display:inline;overflow:visible;visibility:visible;opacity:1;isolation:auto;mix-blend-mode:normal;color-interpolation:sRGB;color-interpolation-filters:linearRGB;solid-color:#000000;solid-opacity:1;vector-effect:none;fill:#ffffff;fill-opacity:1;fill-rule:nonzero;stroke:none;stroke-width:2;stroke-linecap:butt;stroke-linejoin:round;stroke-miterlimit:10;stroke-dasharray:none;stroke-dashoffset:0;stroke-opacity:1;color-rendering:auto;image-rendering:auto;shape-rendering:auto;text-rendering:auto;enable-background:accumulate"
         d="m 222.60882,86.043527 -38.31585,20.145923 c -0.228,0.11756 -0.40211,0.31824 -0.48633,0.56055 l -1.17383,3.38086 -2.88672,-6.20898 c -0.39505,-0.84731 -1.63317,-0.73757 -1.87304,0.16601 l -2.83985,10.71875 -1.99023,-10.64648 c -0.18411,-0.99391 -1.55817,-1.11845 -1.91797,-0.17383 l -7.02539,18.42773 -1.87891,-4.31445 c -0.22991,-0.52727 -0.85614,-0.75239 -1.36914,-0.49219 l -16.61718,8.44531 0.90624,1.78321 15.66993,-7.96485 2.43359,5.58789 c 0.35766,0.82176 1.53243,0.79448 1.85156,-0.043 l 6.63282,-17.39844 2.15429,11.51758 c 0.19707,1.04626 1.67518,1.10108 1.94922,0.0723 l 3.26758,-12.33594 2.75977,5.94141 c 0.37899,0.8148 1.55676,0.7552 1.85156,-0.0937 l 1.85351,-5.33594 L 221.85072,88.256189 223.452,86.078 Z"
         id="path94"
         inkscape:connector-curvature="0"
         sodipodi:nodetypes="ccccccccccccccccccccccccccc" />
      <path
         inkscape:connector-curvature="0"
         id="path96"
         style="fill:#1e2354;fill-opacity:1;fill-rule:evenodd;stroke:none"
         d="m 90.664,150.782 h 8.243 l 3.223,-16.536 3.226,16.536 h 8.244 v -27.094 h -5.196 v 20.583 l -3.943,-20.583 h -4.658 l -3.943,20.583 v -20.583 h -5.196 z" />
      <path
         style="fill:#1e2354;fill-opacity:1;fill-rule:evenodd;stroke:none"
         d="m 123.998,129.496 c 1.42639,0.0794 2.9136,-0.18138 4.29214,0.17536 1.01503,0.0125 1.68454,1.05712 1.90425,1.95804 0.2328,0.87615 0.0212,1.88362 -0.58698,2.54495 -0.66315,0.97582 -1.9455,0.75035 -2.97839,0.77568 -0.87702,0 -1.75404,0 -2.63106,0 3e-5,-1.818 -5e-5,-3.63606 4e-5,-5.45403 z m 0,10.553 c 1.15952,0.0477 2.36667,-0.13628 3.47434,0.17963 1.04861,-0.10225 2.05039,0.93566 1.90266,1.99731 0.0787,1.01113 0.0766,2.37019 -1.08351,2.74832 -0.67228,0.26763 -1.46029,0.32813 -2.21645,0.3557 -0.69236,0 -1.38471,0 -2.07706,0 1e-5,-1.76029 -3e-5,-3.52081 2e-5,-5.28096 z m -6.273,10.733 c 3.96469,-0.0104 7.92949,0.0209 11.8941,-0.0156 1.27873,-0.15878 2.58185,-0.37188 3.60356,-1.25429 0.92034,-0.56726 1.46001,-1.55563 1.95375,-2.47852 0.36263,-1.42577 0.6201,-2.94717 0.38815,-4.41763 -0.33073,-1.15872 -0.59203,-2.39391 -1.52041,-3.25282 -0.14614,-0.75783 -1.82679,-0.97586 -1.58385,-1.31816 1.27617,-0.35326 2.51524,-1.20099 3.05676,-2.40546 0.78578,-0.97744 0.87376,-2.29604 1.03833,-3.48987 -0.041,-1.01699 0.0622,-2.06388 -0.18464,-3.02564 -0.35796,-0.93959 -0.63619,-1.95571 -1.2332,-2.77901 -0.53,-0.66812 -1.14153,-1.27193 -1.93493,-1.68098 -0.87229,-0.50142 -1.84046,-0.45031 -2.77285,-0.66591 -0.93335,-0.14633 -1.85193,-0.29431 -2.79847,-0.29955 -3.3014,-0.0245 -6.6043,-0.004 -9.90628,-0.0105 -1e-5,9.03131 3e-5,18.06275 -2e-5,27.09398 z"
         id="path98"
         inkscape:connector-curvature="0" />
      <path
         inkscape:connector-curvature="0"
         id="path100"
         style="fill:#1e2354;fill-opacity:1;fill-rule:evenodd;stroke:none"
         d="m 144.794,150.607 v 0.175 h -6.272 v -27.094 h 6.272 v 0.179 z" />
      <g
         id="g102">
        <g
           id="g104" />
        <g
           id="g114">
          <g
             style="opacity:0.19999701"
             id="g112"
             clip-path="url(#clipPath108)">
            <path
               inkscape:connector-curvature="0"
               id="path110"
               style="fill:#ffffff;fill-opacity:1;fill-rule:evenodd;stroke:none"
               d="m 127.621,136.732 c 0,-4.539 -3.68,-8.218 -8.22,-8.218 -4.539,0 -8.218,3.679 -8.218,8.218 0,4.54 3.679,8.22 8.218,8.22 4.54,0 8.22,-3.68 8.22,-8.22" />
          </g>
        </g>
      </g>
      <g
         id="g116">
        <g
           id="g118" />
        <g
           id="g128">
          <g
             style="opacity:0.19999701"
             id="g126"
             clip-path="url(#clipPath122)">
            <path
               inkscape:connector-curvature="0"
               id="path124"
               style="fill:#ffffff;fill-opacity:1;fill-rule:evenodd;stroke:none"
               d="m 125.978,136.732 c 0,-3.63 -2.945,-6.575 -6.577,-6.575 -3.63,0 -6.575,2.945 -6.575,6.575 0,3.632 2.945,6.577 6.575,6.577 3.632,0 6.577,-2.945 6.577,-6.577" />
          </g>
        </g>
      </g>
      <g
         id="g130">
        <g
           id="g132" />
        <g
           id="g142">
          <g
             style="opacity:0.19999701"
             id="g140"
             clip-path="url(#clipPath136)">
            <path
               inkscape:connector-curvature="0"
               id="path138"
               style="fill:#ffffff;fill-opacity:1;fill-rule:evenodd;stroke:none"
               d="m 124.662,136.732 c 0,-2.904 -2.355,-5.259 -5.261,-5.259 -2.904,0 -5.259,2.355 -5.259,5.259 0,2.906 2.355,5.261 5.259,5.261 2.906,0 5.261,-2.355 5.261,-5.261" />
          </g>
        </g>
      </g>
      <g
         id="g144">
        <g
           id="g146" />
        <g
           id="g156">
          <g
             style="opacity:0.19999701"
             id="g154"
             clip-path="url(#clipPath150)">
            <path
               inkscape:connector-curvature="0"
               id="path152"
               style="fill:#ffffff;fill-opacity:1;fill-rule:evenodd;stroke:none"
               d="m 123.61,136.732 c 0,-2.323 -1.884,-4.208 -4.209,-4.208 -2.323,0 -4.208,1.885 -4.208,4.208 0,2.325 1.885,4.209 4.208,4.209 2.325,0 4.209,-1.884 4.209,-4.209" />
          </g>
        </g>
      </g>
      <g
         id="g158">
        <g
           id="g160" />
        <g
           id="g170">
          <g
             style="opacity:0.19999701"
             id="g168"
             clip-path="url(#clipPath164)">
            <path
               inkscape:connector-curvature="0"
               id="path166"
               style="fill:#ffffff;fill-opacity:1;fill-rule:evenodd;stroke:none"
               d="m 122.769,136.732 c 0,-1.858 -1.508,-3.366 -3.368,-3.366 -1.858,0 -3.366,1.508 -3.366,3.366 0,1.86 1.508,3.368 3.366,3.368 1.86,0 3.368,-1.508 3.368,-3.368" />
          </g>
        </g>
      </g>
      <g
         id="g172">
        <g
           id="g174" />
        <g
           id="g184">
          <g
             style="opacity:0.19999701"
             id="g182"
             clip-path="url(#clipPath178)">
            <path
               inkscape:connector-curvature="0"
               id="path180"
               style="fill:#ffffff;fill-opacity:1;fill-rule:evenodd;stroke:none"
               d="m 122.096,136.731 c 0,-1.486 -1.206,-2.692 -2.694,-2.692 -1.486,0 -2.693,1.206 -2.693,2.692 0,1.488 1.207,2.695 2.693,2.695 1.488,0 2.694,-1.207 2.694,-2.695" />
          </g>
        </g>
      </g>
      <g
         id="g186">
        <g
           id="g188" />
        <g
           id="g198">
          <g
             style="opacity:0.19999701"
             id="g196"
             clip-path="url(#clipPath192)">
            <path
               inkscape:connector-curvature="0"
               id="path194"
               style="fill:#ffffff;fill-opacity:1;fill-rule:evenodd;stroke:none"
               d="m 121.557,136.731 c 0,-1.188 -0.965,-2.153 -2.155,-2.153 -1.189,0 -2.154,0.965 -2.154,2.153 0,1.191 0.965,2.156 2.154,2.156 1.19,0 2.155,-0.965 2.155,-2.156" />
          </g>
        </g>
      </g>
      <g
         id="g200">
        <g
           id="g202" />
        <g
           id="g212">
          <g
             style="opacity:0.19999701"
             id="g210"
             clip-path="url(#clipPath206)">
            <path
               inkscape:connector-curvature="0"
               id="path208"
               style="fill:#ffffff;fill-opacity:1;fill-rule:evenodd;stroke:none"
               d="m 121.126,136.731 c 0,-0.95 -0.772,-1.722 -1.724,-1.722 -0.951,0 -1.723,0.772 -1.723,1.722 0,0.953 0.772,1.725 1.723,1.725 0.952,0 1.724,-0.772 1.724,-1.725" />
          </g>
        </g>
      </g>
    </g>
  </g>
</svg>
